<?xml version="1.0" encoding="utf-8"?>
<!-- Generator: Adobe Illustrator 23.0.1, SVG Export Plug-In . SVG Version: 6.00 Build 0)  -->
<svg version="1.1" id="Layer_1" xmlns="http://www.w3.org/2000/svg" xmlns:xlink="http://www.w3.org/1999/xlink" x="0px" y="0px"
	 viewBox="0 0 40 40" style="enable-background:new 0 0 40 40;" xml:space="preserve">
<style type="text/css">
	.st0{fill:#FFFFFF;}
	.st1{fill-rule:evenodd;clip-rule:evenodd;fill:#FFFFFF;}
</style>
<path class="st0" d="M20,4.9c4.9,0,5.5,0,7.4,0.1c5,0.2,7.3,2.6,7.5,7.5c0.1,1.9,0.1,2.5,0.1,7.4c0,4.9,0,5.5-0.1,7.4
	c-0.2,4.9-2.5,7.3-7.5,7.5c-1.9,0.1-2.5,0.1-7.4,0.1c-4.9,0-5.5,0-7.4-0.1c-5-0.2-7.3-2.6-7.5-7.5c-0.1-1.9-0.1-2.5-0.1-7.4
	c0-4.9,0-5.5,0.1-7.4C5.3,7.6,7.6,5.3,12.6,5C14.5,5,15.1,4.9,20,4.9z M20,1.6c-5,0-5.6,0-7.6,0.1C5.7,2,2,5.7,1.7,12.4
	c-0.1,2-0.1,2.6-0.1,7.6s0,5.6,0.1,7.6C2,34.3,5.7,38,12.4,38.3c2,0.1,2.6,0.1,7.6,0.1s5.6,0,7.6-0.1c6.7-0.3,10.4-4,10.7-10.7
	c0.1-2,0.1-2.6,0.1-7.6s0-5.6-0.1-7.6C38,5.8,34.3,2,27.6,1.7C25.6,1.6,25,1.6,20,1.6z M20,10.6c-5.2,0-9.4,4.2-9.4,9.4
	s4.2,9.4,9.4,9.4s9.4-4.2,9.4-9.4C29.4,14.8,25.2,10.6,20,10.6z M20,26.1c-3.4,0-6.1-2.7-6.1-6.1c0-3.4,2.7-6.1,6.1-6.1
	s6.1,2.7,6.1,6.1C26.1,23.4,23.4,26.1,20,26.1z M29.8,8c-1.2,0-2.2,1-2.2,2.2s1,2.2,2.2,2.2c1.2,0,2.2-1,2.2-2.2S31,8,29.8,8z"/>
</svg>
