<?xml version="1.0" encoding="utf-8"?>
<!-- Generator: Adobe Illustrator 23.0.1, SVG Export Plug-In . SVG Version: 6.00 Build 0)  -->
<svg version="1.1" id="Layer_1" xmlns="http://www.w3.org/2000/svg" xmlns:xlink="http://www.w3.org/1999/xlink" x="0px" y="0px"
	 viewBox="0 0 40 40" style="enable-background:new 0 0 40 40;" xml:space="preserve">
<style type="text/css">
	.st0{fill:#FFFFFF;}
	.st1{fill-rule:evenodd;clip-rule:evenodd;fill:#FFFFFF;}
</style>
<path class="st1" d="M20,2.1c-9.9,0-17.9,8-17.9,17.9c0,7.6,4.7,14,11.4,16.6c-0.2-1.4-0.3-3.6,0.1-5.1c0.3-1.4,2.1-8.9,2.1-8.9
	s-0.5-1.1-0.5-2.7c0-2.5,1.4-4.3,3.2-4.3c1.5,0,2.3,1.1,2.3,2.5c0,1.5-1,3.8-1.5,5.9c-0.4,1.8,0.9,3.2,2.6,3.2
	c3.2,0,5.6-3.3,5.6-8.2c0-4.3-3.1-7.3-7.5-7.3c-5.1,0-8.1,3.8-8.1,7.8c0,1.5,0.6,3.2,1.3,4.1c0.1,0.2,0.2,0.3,0.1,0.5l-0.5,2
	c-0.1,0.3-0.3,0.4-0.6,0.2c-2.2-1-3.6-4.3-3.6-6.9c0-5.6,4.1-10.8,11.8-10.8c6.2,0,11,4.4,11,10.3c0,6.2-3.9,11.1-9.3,11.1
	c-1.8,0-3.5-0.9-4.1-2.1l-1.1,4.2c-0.4,1.6-1.5,3.5-2.2,4.7c1.7,0.5,3.4,0.8,5.3,0.8c9.9,0,17.9-8,17.9-17.9
	C37.9,10.1,29.9,2.1,20,2.1z"/>
</svg>
